<svg width="62" height="62" viewBox="0 0 62 62" fill="none" xmlns="http://www.w3.org/2000/svg">
<path d="M46.5512 17.2452C46.0162 16.9337 45.3134 16.7888 44.3396 16.7888C36.7813 16.7888 11.0485 26.388 9.95695 26.797C9.71724 26.8864 9.50733 27.0421 9.35294 27.2466C7.67362 29.4595 8.00542 37.6015 10.714 41.6644C14.4451 47.2617 19.9516 48.8475 22.6019 49.1062C22.6453 49.1103 22.7482 49.1157 22.7915 49.1157C26.1204 49.1157 47.6184 34.5422 49.2327 31.193C51.0894 27.3428 50.9675 19.817 46.5512 17.2452V17.2452Z" fill="#EEEEEE"/>
<path d="M41.8627 19.9957C36.4455 24.0586 24.2569 32.1843 24.2569 32.1843C23.2899 35.0838 21.6526 43.4832 23.2439 49.0506C27.6995 48.0417 47.678 34.4175 49.2327 31.193C50.6344 28.288 50.9052 23.2921 49.0566 19.909C46.6893 18.5114 44.1555 18.2758 41.8627 19.9957Z" fill="#CCD6DD"/>
<path d="M50.0123 15.2842C49.7049 14.9957 49.2797 14.8657 48.8666 14.9361L9.08301 21.4814C8.41535 21.5911 7.93187 22.1775 7.94947 22.8533C7.98468 24.2211 7.9752 25.2179 7.96301 26.3379C7.95624 26.9608 7.94947 27.6217 7.94947 28.4032C7.94947 28.8054 8.12824 29.1887 8.43837 29.446C11.1916 31.7307 20.2396 37.7843 22.2968 38.8136C22.4878 38.9084 22.6963 38.9558 22.9022 38.9558C23.1947 38.9558 23.4872 38.861 23.7283 38.6754C27.1899 36.0116 46.051 25.2274 49.0034 23.9476C49.4571 23.7512 49.7686 23.3205 49.8132 22.8276C49.9825 20.9695 50.4335 16.4069 50.4335 16.4069C50.4741 15.9857 50.3198 15.5713 50.0123 15.2842V15.2842Z" fill="#A0041E"/>
<path d="M50.1035 15.3763C47.3678 12.2682 37.0658 7.82747 35.3187 7.75163C35.209 7.74621 35.1034 7.75433 34.9964 7.776C21.31 10.5035 12.354 18.3476 8.98187 21.3013L8.41848 21.7915C8.10429 22.0624 7.93229 22.4633 7.9499 22.8777C7.96886 23.2921 8.17607 23.6754 8.51328 23.9178C8.97239 24.2469 19.7756 31.9893 22.4042 33.4763C22.6128 33.5928 22.8417 33.651 23.0705 33.651C23.3956 33.651 23.7192 33.5332 23.9738 33.3071C29.2759 28.5684 47.1322 18.4627 49.5685 17.5377C49.9843 17.3793 50.2944 17.0285 50.4014 16.5978C50.5084 16.1658 50.3974 15.7094 50.1035 15.3763Z" fill="#DD2E44"/>
<path d="M19.0645 30.0405C18.4171 30.0405 17.8456 29.576 17.7319 28.9165L17.6696 28.5549C17.1305 25.4292 16.5198 21.885 15.4092 18.4993C15.175 17.7896 15.5636 17.0244 16.2733 16.7902C16.9829 16.5559 17.7495 16.9445 17.9824 17.6555C19.1552 21.2295 19.7836 24.8766 20.3375 28.0944L20.3998 28.4546C20.5271 29.1914 20.0328 29.8929 19.2961 30.0188C19.2189 30.0337 19.1403 30.0405 19.0645 30.0405V30.0405ZM27.2471 29.7019C26.5307 29.7019 25.9321 29.1386 25.8955 28.4154C25.7912 26.3298 24.2893 17.6176 22.9296 13.9177C22.6723 13.2148 23.0312 12.4375 23.7327 12.1788C24.4396 11.9201 25.2143 12.2804 25.4716 12.9819C26.9126 16.9026 28.4741 25.7596 28.6 28.2786C28.6379 29.0248 28.0624 29.6613 27.3148 29.6979C27.2931 29.7006 27.2701 29.7019 27.2471 29.7019ZM34.865 24.5665C34.2054 24.5665 33.6285 24.0857 33.5269 23.4126L33.3739 22.3468C32.9771 19.5556 32.2376 14.3606 31.0987 10.9437C30.8617 10.234 31.2449 9.46751 31.9546 9.23051C32.667 8.99351 33.4308 9.37813 33.6678 10.0864C34.8839 13.7362 35.6464 19.0884 36.0554 21.9649L36.2071 23.0104C36.3181 23.7498 35.8075 24.4392 35.0681 24.5502C35.0004 24.5624 34.9313 24.5665 34.865 24.5665V24.5665ZM42.5384 19.9389C41.8504 19.9389 41.2626 19.4175 41.1922 18.7187C40.9403 16.1956 40.5516 14.3578 39.8528 12.3752C39.6036 11.6696 39.9747 10.8963 40.6789 10.6485C41.3872 10.3993 42.1578 10.769 42.407 11.4746C43.1722 13.6468 43.6164 15.7325 43.8872 18.4492C43.9617 19.1927 43.4173 19.8563 42.6738 19.9307C42.6277 19.9375 42.5831 19.9389 42.5384 19.9389V19.9389Z" fill="#EA596E"/>
<path d="M50.1726 37.6015C47.8513 35.929 44.681 34.8929 41.1855 34.8929C37.6901 34.8929 34.5197 35.929 32.1985 37.6015H28.3198V44.373C28.3198 49.5992 34.0918 53.853 41.1855 53.853C48.2793 53.853 54.0513 49.5992 54.0513 44.373V37.6015H50.1726Z" fill="#292F33"/>
<path d="M41.1855 47.0815C48.2911 47.0815 54.0513 42.8372 54.0513 37.6015C54.0513 32.3659 48.2911 28.1215 41.1855 28.1215C34.08 28.1215 28.3198 32.3659 28.3198 37.6015C28.3198 42.8372 34.08 47.0815 41.1855 47.0815Z" fill="#292F33"/>
<path d="M50.7779 37.6015C50.7779 41.3421 46.4835 44.373 41.1855 44.373C35.8875 44.373 31.593 41.3421 31.593 37.6015C31.593 33.861 35.8875 30.8301 41.1855 30.8301C46.4835 30.8301 50.7779 33.861 50.7779 37.6015Z" fill="#E1E8ED"/>
<path d="M41.1855 45.5011C35.2741 45.5011 30.4636 41.9582 30.4636 37.6015C30.4636 33.2448 35.2741 29.7019 41.1855 29.7019C47.097 29.7019 51.9061 33.2461 51.9061 37.6015C51.9061 41.9569 47.097 45.5011 41.1855 45.5011V45.5011ZM41.1855 31.9582C36.5186 31.9582 32.7212 34.4893 32.7212 37.6015C32.7212 40.7137 36.5186 43.2448 41.1855 43.2448C45.8524 43.2448 49.6498 40.7137 49.6498 37.6015C49.6498 34.4893 45.8524 31.9582 41.1855 31.9582Z" fill="#E1E8ED"/>
<path d="M35.3742 36.9812C35.3742 36.4097 37.8201 36.5275 41.1855 36.5275C44.5509 36.5275 46.8857 35.7881 46.8857 36.3596C46.8857 38.7634 44.5509 41.17 41.1855 41.17C37.8201 41.17 35.3742 39.3851 35.3742 36.9812Z" fill="#77B255"/>
<path d="M41.1855 41.8472C37.426 41.8472 34.6971 39.8009 34.6971 36.9813C34.6971 36.7483 34.7905 36.5262 34.9612 36.3569C35.4731 35.8464 36.5823 35.8247 39.7052 35.845L41.1855 35.8504C42.6671 35.8504 43.9672 35.7015 44.9179 35.5918C46.2627 35.4387 46.8721 35.3683 47.2825 35.7326L47.51 35.9344L47.5628 36.3583C47.5628 38.9978 45.1238 41.8472 41.1855 41.8472V41.8472ZM36.0703 37.2995C36.283 39.1685 38.3686 40.4916 41.1855 40.4916C43.9564 40.4916 45.8903 38.6728 46.1733 36.8255C45.8754 36.8431 45.4583 36.8919 45.0736 36.9352C44.0904 37.049 42.7456 37.2034 41.1868 37.2034L39.6985 37.198C38.2765 37.1898 36.6933 37.1831 36.0703 37.2995V37.2995Z" fill="#77B255"/>
<path d="M47.2797 36.2472C47.2797 36.2472 44.5711 34.8929 40.5082 36.2472C37.3162 37.3117 35.0911 39.7142 35.0911 37.3103C35.0911 34.9065 37.82 32.959 41.1854 32.959C44.5508 32.959 47.2797 34.8929 47.2797 36.2472Z" fill="#F4900C"/>
<path d="M35.6952 39.0235C35.469 39.0235 35.2591 38.9707 35.0614 38.8515C34.414 38.4615 34.414 37.5947 34.414 37.3103C34.414 34.5381 37.4517 32.2819 41.1855 32.2819C44.9369 32.2819 47.9569 34.4514 47.9569 36.2472C47.9569 36.4815 47.835 36.6996 47.636 36.8241C47.4382 36.9447 47.189 36.9582 46.9805 36.8539C46.9358 36.8309 44.4249 35.654 40.7237 36.8892C39.6985 37.2304 38.7803 37.7153 37.9717 38.1446C37.0481 38.6335 36.3127 39.0235 35.6952 39.0235ZM41.1855 33.6361C38.1979 33.6361 35.7683 35.2843 35.7683 37.3103C35.7683 37.4823 35.7819 37.592 35.7968 37.6584C36.111 37.5974 36.8111 37.2277 37.3379 36.9487C38.1519 36.5194 39.1649 35.9818 40.2957 35.6053C42.5926 34.8401 44.4899 34.8889 45.7711 35.1096C44.8556 34.3742 43.2386 33.6361 41.1855 33.6361Z" fill="#F4900C"/>
</svg>
