<svg width="32" height="32" viewBox="0 0 32 32" fill="none" xmlns="http://www.w3.org/2000/svg">
<path d="M24.0264 8.90075C23.7503 8.73998 23.3875 8.66519 22.8849 8.66519C18.9839 8.66519 5.70242 13.6196 5.13904 13.8307C5.01532 13.8768 4.90697 13.9572 4.82729 14.0628C3.96054 15.2049 4.13179 19.4072 5.52977 21.5042C7.45548 24.3931 10.2976 25.2116 11.6655 25.3451C11.6879 25.3472 11.741 25.35 11.7633 25.35C13.4815 25.35 24.5772 17.8282 25.4104 16.0996C26.3687 14.1124 26.3058 10.2281 24.0264 8.90075V8.90075Z" fill="#EEEEEE"/>
<path d="M21.6065 10.3204C18.8106 12.4174 12.5197 16.6113 12.5197 16.6113C12.0206 18.1078 11.1755 22.4429 11.9969 25.3165C14.2965 24.7957 24.608 17.7639 25.4104 16.0996C26.1339 14.6003 26.2737 12.0217 25.3196 10.2757C24.0977 9.5543 22.7899 9.43267 21.6065 10.3204Z" fill="#CCD6DD"/>
<path d="M25.8131 7.88862C25.6544 7.73973 25.4349 7.67263 25.2217 7.70898L4.68826 11.0872C4.34366 11.1438 4.09412 11.4465 4.10321 11.7953C4.12138 12.5012 4.11649 13.0157 4.1102 13.5938C4.1067 13.9153 4.10321 14.2564 4.10321 14.6597C4.10321 14.8673 4.19547 15.0651 4.35554 15.1979C5.77658 16.3771 10.4465 19.5016 11.5083 20.0328C11.6068 20.0818 11.7145 20.1062 11.8207 20.1062C11.9717 20.1062 12.1227 20.0573 12.2471 19.9615C14.0337 18.5866 23.7685 13.0206 25.2923 12.36C25.5265 12.2587 25.6873 12.0364 25.7103 11.782C25.7977 10.823 26.0305 8.46808 26.0305 8.46808C26.0514 8.25069 25.9717 8.0368 25.8131 7.88862V7.88862Z" fill="#A0041E"/>
<path d="M25.8599 7.93614C24.4479 6.33196 19.1307 4.03998 18.229 4.00084C18.1724 3.99804 18.1179 4.00224 18.0627 4.01342C10.9987 5.42118 6.37628 9.46972 4.6358 10.9942L4.34502 11.2472C4.18286 11.387 4.09409 11.5939 4.10317 11.8078C4.11296 12.0217 4.21991 12.2195 4.39395 12.3447C4.63091 12.5145 10.2067 16.5106 11.5635 17.2781C11.6711 17.3382 11.7892 17.3683 11.9074 17.3683C12.0751 17.3683 12.2422 17.3075 12.3736 17.1907C15.1101 14.745 24.3263 9.52913 25.5838 9.05172C25.7984 8.96994 25.9584 8.78891 26.0136 8.56663C26.0689 8.34365 26.0115 8.10809 25.8599 7.93614Z" fill="#DD2E44"/>
<path d="M9.83976 15.5048C9.50564 15.5048 9.21067 15.265 9.15196 14.9246L9.1198 14.738C8.84161 13.1247 8.52636 11.2955 7.95319 9.54802C7.83227 9.18175 8.03288 8.78683 8.39915 8.6659C8.76542 8.54498 9.16104 8.74559 9.28127 9.11255C9.88659 10.9572 10.2109 12.8396 10.4968 14.5004L10.529 14.6863C10.5947 15.0665 10.3395 15.4286 9.95929 15.4936C9.91944 15.5013 9.8789 15.5048 9.83976 15.5048V15.5048ZM14.063 15.3301C13.6933 15.3301 13.3843 15.0393 13.3655 14.666C13.3116 13.5896 12.5365 9.09298 11.8347 7.18335C11.7019 6.82057 11.8871 6.41935 12.2492 6.28585C12.614 6.15234 13.0139 6.33827 13.1467 6.70035C13.8904 8.72392 14.6963 13.2953 14.7613 14.5954C14.7809 14.9806 14.4838 15.3091 14.098 15.328C14.0868 15.3294 14.0749 15.3301 14.063 15.3301ZM17.9949 12.6795C17.6544 12.6795 17.3567 12.4313 17.3043 12.084L17.2253 11.5338C17.0205 10.0932 16.6388 7.41192 16.051 5.64837C15.9286 5.2821 16.1265 4.88647 16.4927 4.76415C16.8604 4.64183 17.2546 4.84034 17.3769 5.20591C18.0046 7.08968 18.3982 9.85208 18.6093 11.3367L18.6875 11.8764C18.7449 12.258 18.4813 12.6138 18.0997 12.6711C18.0647 12.6774 18.0291 12.6795 17.9949 12.6795V12.6795ZM21.9553 10.291C21.6002 10.291 21.2969 10.0219 21.2605 9.66126C21.1305 8.35905 20.9299 7.41052 20.5692 6.3872C20.4406 6.02303 20.6321 5.62391 20.9956 5.49599C21.3612 5.36738 21.7589 5.5582 21.8875 5.92237C22.2824 7.04355 22.5117 8.11999 22.6515 9.52216C22.69 9.90591 22.409 10.2484 22.0252 10.2869C22.0014 10.2903 21.9784 10.291 21.9553 10.291V10.291Z" fill="#EA596E"/>
<path d="M25.8955 19.4073C24.6974 18.544 23.0611 18.0093 21.257 18.0093C19.4529 18.0093 17.8166 18.544 16.6185 19.4073H14.6166V22.9022C14.6166 25.5996 17.5957 27.7951 21.257 27.7951C24.9183 27.7951 27.8974 25.5996 27.8974 22.9022V19.4073H25.8955Z" fill="#292F33"/>
<path d="M21.257 24.3001C24.9244 24.3001 27.8974 22.1095 27.8974 19.4072C27.8974 16.7049 24.9244 14.5143 21.257 14.5143C17.5896 14.5143 14.6166 16.7049 14.6166 19.4072C14.6166 22.1095 17.5896 24.3001 21.257 24.3001Z" fill="#292F33"/>
<path d="M26.208 19.4072C26.208 21.3378 23.9915 22.9022 21.257 22.9022C18.5226 22.9022 16.3061 21.3378 16.3061 19.4072C16.3061 17.4766 18.5226 15.9123 21.257 15.9123C23.9915 15.9123 26.208 17.4766 26.208 19.4072Z" fill="#E1E8ED"/>
<path d="M21.257 23.4844C18.2059 23.4844 15.7231 21.6559 15.7231 19.4072C15.7231 17.1586 18.2059 15.33 21.257 15.33C24.3081 15.33 26.7902 17.1593 26.7902 19.4072C26.7902 21.6552 24.3081 23.4844 21.257 23.4844V23.4844ZM21.257 16.4945C18.8483 16.4945 16.8884 17.8009 16.8884 19.4072C16.8884 21.0135 18.8483 22.3199 21.257 22.3199C23.6657 22.3199 25.6257 21.0135 25.6257 19.4072C25.6257 17.8009 23.6657 16.4945 21.257 16.4945Z" fill="#E1E8ED"/>
<path d="M18.2577 19.0871C18.2577 18.7921 19.52 18.8529 21.257 18.8529C22.994 18.8529 24.1991 18.4713 24.1991 18.7662C24.1991 20.0069 22.994 21.249 21.257 21.249C19.52 21.249 18.2577 20.3278 18.2577 19.0871Z" fill="#77B255"/>
<path d="M21.257 21.5986C19.3166 21.5986 17.9082 20.5424 17.9082 19.0871C17.9082 18.9669 17.9564 18.8522 18.0445 18.7649C18.3087 18.5014 18.8812 18.4902 20.493 18.5007L21.257 18.5035C22.0217 18.5035 22.6927 18.4266 23.1834 18.3699C23.8775 18.291 24.1921 18.2546 24.4039 18.4426L24.5213 18.5468L24.5486 18.7656C24.5486 20.1279 23.2897 21.5986 21.257 21.5986V21.5986ZM18.6169 19.2514C18.7267 20.216 19.8031 20.8989 21.257 20.8989C22.6872 20.8989 23.6853 19.9601 23.8314 19.0067C23.6776 19.0158 23.4623 19.041 23.2638 19.0633C22.7564 19.1221 22.0623 19.2017 21.2577 19.2017L20.4895 19.1989C19.7556 19.1948 18.9385 19.1913 18.6169 19.2514V19.2514Z" fill="#77B255"/>
<path d="M24.4024 18.7083C24.4024 18.7083 23.0045 18.0093 20.9075 18.7083C19.26 19.2577 18.1115 20.4977 18.1115 19.257C18.1115 18.0163 19.52 17.0111 21.257 17.0111C22.994 17.0111 24.4024 18.0093 24.4024 18.7083Z" fill="#F4900C"/>
<path d="M18.4233 20.1412C18.3066 20.1412 18.1983 20.1139 18.0962 20.0524C17.7621 19.8511 17.7621 19.4037 17.7621 19.257C17.7621 17.8261 19.3299 16.6616 21.257 16.6616C23.1932 16.6616 24.752 17.7814 24.752 18.7083C24.752 18.8292 24.6891 18.9417 24.5863 19.006C24.4843 19.0682 24.3556 19.0752 24.248 19.0214C24.2249 19.0095 22.929 18.4021 21.0187 19.0396C20.4895 19.2157 20.0156 19.466 19.5983 19.6875C19.1216 19.9399 18.7421 20.1412 18.4233 20.1412ZM21.257 17.3606C19.7151 17.3606 18.4611 18.2113 18.4611 19.257C18.4611 19.3457 18.4681 19.4024 18.4758 19.4366C18.6379 19.4051 18.9993 19.2143 19.2712 19.0703C19.6913 18.8488 20.2141 18.5713 20.7978 18.3769C21.9833 17.982 22.9626 18.0072 23.6238 18.1211C23.1513 17.7416 22.3167 17.3606 21.257 17.3606Z" fill="#F4900C"/>
</svg>
