<svg width="104" height="24" viewBox="0 0 104 24" fill="none" xmlns="http://www.w3.org/2000/svg">
<path d="M11.5843 2.56L10.6483 4.696C9.99228 4.456 9.33628 4.264 8.68028 4.12C8.04028 3.976 7.42428 3.904 6.83228 3.904C5.82428 3.904 5.01628 4.112 4.40828 4.528C3.81628 4.944 3.52028 5.472 3.52028 6.112C3.52028 6.656 3.73628 7.096 4.16828 7.432C4.60028 7.752 5.13628 8.048 5.77628 8.32C6.41628 8.576 7.11228 8.84 7.86428 9.112C8.61628 9.368 9.31228 9.704 9.95228 10.12C10.5923 10.536 11.1283 11.064 11.5603 11.704C11.9923 12.328 12.2083 13.136 12.2083 14.128C12.2083 14.896 12.0643 15.592 11.7763 16.216C11.5043 16.824 11.0883 17.352 10.5283 17.8C9.98428 18.248 9.29628 18.592 8.46428 18.832C7.64828 19.072 6.68828 19.192 5.58428 19.192C4.88028 19.192 4.24028 19.144 3.66428 19.048C3.10428 18.952 2.59228 18.832 2.12828 18.688C1.68028 18.528 1.28028 18.36 0.928281 18.184C0.592281 18.008 0.304281 17.848 0.0642813 17.704L1.21628 15.424C1.85628 15.792 2.56828 16.088 3.35228 16.312C4.13628 16.536 4.84828 16.648 5.48828 16.648C5.80828 16.648 6.20028 16.608 6.66428 16.528C7.14428 16.448 7.60028 16.312 8.03228 16.12C8.46428 15.912 8.83228 15.64 9.13628 15.304C9.45628 14.968 9.61628 14.544 9.61628 14.032C9.61628 13.568 9.48828 13.176 9.23228 12.856C8.99228 12.52 8.66428 12.232 8.24828 11.992C7.84828 11.736 7.38428 11.512 6.85628 11.32C6.34428 11.112 5.81628 10.904 5.27228 10.696C4.72828 10.472 4.19228 10.24 3.66428 10C3.15228 9.76 2.68828 9.472 2.27228 9.136C1.87228 8.784 1.54428 8.384 1.28828 7.936C1.04828 7.472 0.928281 6.92 0.928281 6.28C0.928281 5.688 1.04828 5.104 1.28828 4.528C1.52828 3.952 1.88828 3.44 2.36828 2.992C2.84828 2.544 3.44028 2.184 4.14428 1.912C4.86428 1.64 5.69628 1.504 6.64028 1.504C7.21628 1.504 7.77628 1.552 8.32028 1.648C8.88028 1.744 9.38428 1.856 9.83228 1.984C10.2803 2.096 10.6563 2.208 10.9603 2.32C11.2803 2.432 11.4883 2.512 11.5843 2.56ZM23.6471 19.216H21.9191L21.6791 16.432C21.3111 17.248 20.7911 17.92 20.1191 18.448C19.4631 18.976 18.6231 19.24 17.5991 19.24C16.5751 19.24 15.7591 18.968 15.1511 18.424C14.5591 17.864 14.2471 17.136 14.2151 16.24V8.968H16.2551V15.328C16.2871 15.824 16.4631 16.248 16.7831 16.6C17.1191 16.952 17.6311 17.152 18.3191 17.2C18.7991 17.2 19.2391 17.12 19.6391 16.96C20.0391 16.784 20.3831 16.552 20.6711 16.264C20.9591 15.976 21.1831 15.632 21.3431 15.232C21.5031 14.832 21.5831 14.392 21.5831 13.912V8.968H23.6471V19.216ZM32.114 9.856L31.034 11.296C31.018 11.28 30.962 11.24 30.866 11.176C30.77 11.112 30.642 11.048 30.482 10.984C30.338 10.92 30.162 10.864 29.954 10.816C29.762 10.752 29.562 10.72 29.354 10.72C29.082 10.72 28.81 10.784 28.538 10.912C28.282 11.04 28.154 11.28 28.154 11.632C28.154 11.936 28.258 12.184 28.466 12.376C28.69 12.568 28.962 12.744 29.282 12.904C29.602 13.048 29.946 13.2 30.314 13.36C30.698 13.52 31.05 13.72 31.37 13.96C31.69 14.184 31.954 14.472 32.162 14.824C32.386 15.16 32.498 15.592 32.498 16.12C32.498 17.016 32.186 17.76 31.562 18.352C30.954 18.928 30.114 19.216 29.042 19.216C28.418 19.216 27.802 19.112 27.194 18.904C26.602 18.68 26.122 18.36 25.754 17.944C25.866 17.832 25.986 17.688 26.114 17.512C26.258 17.336 26.394 17.168 26.522 17.008C26.666 16.848 26.778 16.72 26.858 16.624C26.954 16.512 27.01 16.456 27.026 16.456C27.026 16.472 27.082 16.52 27.194 16.6C27.322 16.68 27.482 16.768 27.674 16.864C27.866 16.944 28.082 17.024 28.322 17.104C28.562 17.168 28.802 17.2 29.042 17.2C29.426 17.2 29.754 17.104 30.026 16.912C30.298 16.72 30.434 16.464 30.434 16.144C30.434 15.856 30.322 15.632 30.098 15.472C29.89 15.296 29.626 15.136 29.306 14.992C28.986 14.848 28.634 14.704 28.25 14.56C27.866 14.4 27.514 14.2 27.194 13.96C26.874 13.72 26.602 13.424 26.378 13.072C26.17 12.704 26.066 12.232 26.066 11.656C26.066 11.112 26.162 10.656 26.354 10.288C26.562 9.92 26.818 9.624 27.122 9.4C27.442 9.16 27.794 8.992 28.178 8.896C28.562 8.784 28.93 8.728 29.282 8.728C29.746 8.728 30.242 8.824 30.77 9.016C31.298 9.208 31.746 9.488 32.114 9.856ZM34.6783 0.352H36.7183V11.392C37.0703 10.592 37.5663 9.952 38.2063 9.472C38.8463 8.976 39.6703 8.72 40.6783 8.704C41.7023 8.688 42.5183 8.96 43.1263 9.52C43.7503 10.08 44.0783 10.808 44.1103 11.704V19H42.0463V12.64C42.0143 12.128 41.8383 11.696 41.5183 11.344C41.1983 10.976 40.6943 10.776 40.0063 10.744C39.5263 10.744 39.0863 10.832 38.6863 11.008C38.2863 11.168 37.9423 11.392 37.6543 11.68C37.3663 11.968 37.1343 12.312 36.9583 12.712C36.7983 13.112 36.7183 13.552 36.7183 14.032V19H34.6783V0.352ZM46.6252 5.128C46.6252 4.744 46.7612 4.424 47.0332 4.168C47.3212 3.912 47.6252 3.784 47.9452 3.784C48.2652 3.784 48.5612 3.912 48.8332 4.168C49.1052 4.424 49.2412 4.744 49.2412 5.128C49.2412 5.512 49.1052 5.832 48.8332 6.088C48.5612 6.328 48.2652 6.448 47.9452 6.448C47.6252 6.448 47.3212 6.328 47.0332 6.088C46.7612 5.832 46.6252 5.512 46.6252 5.128ZM48.9292 19H46.8892V8.968H48.9292V19ZM62.2327 2.56L61.2967 4.696C60.6407 4.456 59.9847 4.264 59.3287 4.12C58.6887 3.976 58.0727 3.904 57.4807 3.904C56.4727 3.904 55.6647 4.112 55.0567 4.528C54.4647 4.944 54.1687 5.472 54.1687 6.112C54.1687 6.656 54.3847 7.096 54.8167 7.432C55.2487 7.752 55.7847 8.048 56.4247 8.32C57.0647 8.576 57.7607 8.84 58.5127 9.112C59.2647 9.368 59.9607 9.704 60.6007 10.12C61.2407 10.536 61.7767 11.064 62.2087 11.704C62.6407 12.328 62.8567 13.136 62.8567 14.128C62.8567 14.896 62.7127 15.592 62.4247 16.216C62.1527 16.824 61.7367 17.352 61.1767 17.8C60.6327 18.248 59.9447 18.592 59.1127 18.832C58.2967 19.072 57.3367 19.192 56.2327 19.192C55.5287 19.192 54.8887 19.144 54.3127 19.048C53.7527 18.952 53.2407 18.832 52.7767 18.688C52.3287 18.528 51.9287 18.36 51.5767 18.184C51.2407 18.008 50.9527 17.848 50.7127 17.704L51.8647 15.424C52.5047 15.792 53.2167 16.088 54.0007 16.312C54.7847 16.536 55.4967 16.648 56.1367 16.648C56.4567 16.648 56.8487 16.608 57.3127 16.528C57.7927 16.448 58.2487 16.312 58.6807 16.12C59.1127 15.912 59.4807 15.64 59.7847 15.304C60.1047 14.968 60.2647 14.544 60.2647 14.032C60.2647 13.568 60.1367 13.176 59.8807 12.856C59.6407 12.52 59.3127 12.232 58.8967 11.992C58.4967 11.736 58.0327 11.512 57.5047 11.32C56.9927 11.112 56.4647 10.904 55.9207 10.696C55.3767 10.472 54.8407 10.24 54.3127 10C53.8007 9.76 53.3367 9.472 52.9207 9.136C52.5207 8.784 52.1927 8.384 51.9367 7.936C51.6967 7.472 51.5767 6.92 51.5767 6.28C51.5767 5.688 51.6967 5.104 51.9367 4.528C52.1767 3.952 52.5367 3.44 53.0167 2.992C53.4967 2.544 54.0887 2.184 54.7927 1.912C55.5127 1.64 56.3447 1.504 57.2887 1.504C57.8647 1.504 58.4247 1.552 58.9687 1.648C59.5287 1.744 60.0327 1.856 60.4807 1.984C60.9287 2.096 61.3047 2.208 61.6087 2.32C61.9287 2.432 62.1367 2.512 62.2327 2.56ZM70.1503 10.576L69.4063 8.968H71.1823C71.6463 9.976 72.0383 10.848 72.3583 11.584C72.6783 12.304 72.9503 12.936 73.1743 13.48C73.3983 14.008 73.5823 14.456 73.7263 14.824C73.8703 15.192 73.9903 15.504 74.0863 15.76C74.1823 15.28 74.2943 14.848 74.4223 14.464C74.5663 14.064 74.7423 13.624 74.9503 13.144C75.1583 12.648 75.4063 12.08 75.6943 11.44C75.9983 10.784 76.3583 9.96 76.7743 8.968H78.8383L74.0863 19.6C73.7983 19.008 73.5263 18.424 73.2703 17.848C73.0303 17.256 72.7903 16.672 72.5503 16.096C72.3263 15.52 72.0863 14.944 71.8303 14.368C71.5903 13.792 71.3263 13.2 71.0383 12.592L67.9903 19.6L63.4543 8.968H65.5183C65.9343 9.96 66.2783 10.784 66.5503 11.44C66.8223 12.096 67.0463 12.664 67.2223 13.144C67.4143 13.624 67.5663 14.064 67.6783 14.464C67.7903 14.848 67.8943 15.28 67.9903 15.76C68.0543 15.568 68.1263 15.352 68.2063 15.112C68.3023 14.872 68.4223 14.568 68.5663 14.2C68.7263 13.816 68.9343 13.336 69.1903 12.76C69.4463 12.184 69.7663 11.456 70.1503 10.576ZM79.3807 14.08C79.3807 13.344 79.5167 12.656 79.7887 12.016C80.0767 11.36 80.4607 10.792 80.9407 10.312C81.4207 9.816 81.9727 9.424 82.5967 9.136C83.2367 8.848 83.9167 8.704 84.6367 8.704C85.1167 8.704 85.5567 8.768 85.9567 8.896C86.3567 9.008 86.7007 9.152 86.9887 9.328C87.2767 9.504 87.5087 9.688 87.6847 9.88C87.8607 10.072 87.9807 10.24 88.0447 10.384L88.1407 8.968H90.1087V19H88.0447V17.728C87.9647 17.856 87.8367 18.008 87.6607 18.184C87.4847 18.36 87.2527 18.528 86.9647 18.688C86.6927 18.832 86.3647 18.96 85.9807 19.072C85.5967 19.184 85.1567 19.24 84.6607 19.24C83.8927 19.24 83.1807 19.104 82.5247 18.832C81.8847 18.544 81.3327 18.168 80.8687 17.704C80.4047 17.224 80.0367 16.672 79.7647 16.048C79.5087 15.424 79.3807 14.768 79.3807 14.08ZM81.4447 13.96C81.4447 14.424 81.5247 14.856 81.6847 15.256C81.8607 15.656 82.0927 16 82.3807 16.288C82.6687 16.576 83.0127 16.808 83.4127 16.984C83.8127 17.144 84.2527 17.224 84.7327 17.224C85.2127 17.224 85.6527 17.144 86.0527 16.984C86.4687 16.808 86.8207 16.576 87.1087 16.288C87.4127 15.984 87.6447 15.64 87.8047 15.256C87.9647 14.856 88.0447 14.424 88.0447 13.96C88.0447 13.496 87.9647 13.072 87.8047 12.688C87.6447 12.288 87.4127 11.944 87.1087 11.656C86.8207 11.368 86.4687 11.144 86.0527 10.984C85.6527 10.808 85.2127 10.72 84.7327 10.72C84.2527 10.72 83.8127 10.808 83.4127 10.984C83.0127 11.144 82.6687 11.368 82.3807 11.656C82.0927 11.944 81.8607 12.288 81.6847 12.688C81.5247 13.072 81.4447 13.496 81.4447 13.96ZM101.487 13.96C101.487 13.496 101.415 13.072 101.271 12.688C101.127 12.288 100.919 11.944 100.647 11.656C100.375 11.368 100.047 11.144 99.6628 10.984C99.2788 10.808 98.8468 10.72 98.3668 10.72C97.8868 10.72 97.4388 10.808 97.0228 10.984C96.6228 11.144 96.2788 11.368 95.9908 11.656C95.7028 11.944 95.4708 12.288 95.2948 12.688C95.1348 13.072 95.0548 13.496 95.0548 13.96C95.0548 14.424 95.1348 14.856 95.2948 15.256C95.4708 15.656 95.7028 16 95.9908 16.288C96.2788 16.576 96.6228 16.808 97.0228 16.984C97.4388 17.144 97.8868 17.224 98.3668 17.224C98.8468 17.224 99.2788 17.144 99.6628 16.984C100.047 16.808 100.375 16.576 100.647 16.288C100.919 15.984 101.127 15.64 101.271 15.256C101.415 14.856 101.487 14.424 101.487 13.96ZM103.719 14.008C103.719 14.76 103.591 15.456 103.335 16.096C103.079 16.736 102.719 17.288 102.255 17.752C101.791 18.216 101.231 18.584 100.575 18.856C99.9348 19.112 99.2308 19.24 98.4628 19.24C98.0628 19.24 97.6788 19.192 97.3108 19.096C96.9588 19.016 96.6308 18.904 96.3268 18.76C96.0228 18.6 95.7588 18.432 95.5348 18.256C95.3108 18.064 95.1428 17.872 95.0308 17.68C95.0308 17.76 95.0308 17.848 95.0308 17.944C95.0468 18.024 95.0548 18.104 95.0548 18.184V23.824H92.9908V8.968H94.9828C94.9828 9.16 94.9908 9.4 95.0068 9.688C95.0388 9.96 95.0548 10.208 95.0548 10.432C95.1828 10.24 95.3508 10.048 95.5588 9.856C95.7828 9.648 96.0388 9.464 96.3268 9.304C96.6308 9.128 96.9668 8.984 97.3348 8.872C97.7028 8.76 98.1108 8.704 98.5588 8.704C99.3268 8.704 100.023 8.832 100.647 9.088C101.287 9.328 101.831 9.68 102.279 10.144C102.743 10.592 103.095 11.144 103.335 11.8C103.591 12.456 103.719 13.192 103.719 14.008Z" fill="#5B3926"/>
</svg>
